<svg width="167" height="48" viewBox="0 0 167 48" fill="none" xmlns="http://www.w3.org/2000/svg">
<rect width="167" height="48" rx="8" fill="#8EADD5"/>
<path d="M42.1705 22.2898H40.0455C39.9848 21.9413 39.8731 21.6326 39.7102 21.3636C39.5473 21.0909 39.3447 20.8598 39.1023 20.6705C38.8598 20.4811 38.5833 20.339 38.2727 20.2443C37.9659 20.1458 37.6345 20.0966 37.2784 20.0966C36.6458 20.0966 36.0852 20.2557 35.5966 20.5739C35.108 20.8883 34.7254 21.3504 34.4489 21.9602C34.1723 22.5663 34.0341 23.3068 34.0341 24.1818C34.0341 25.072 34.1723 25.822 34.4489 26.4318C34.7292 27.0379 35.1117 27.4962 35.5966 27.8068C36.0852 28.1136 36.6439 28.267 37.2727 28.267C37.6212 28.267 37.947 28.2216 38.25 28.1307C38.5568 28.036 38.8314 27.8977 39.0739 27.7159C39.3201 27.5341 39.5265 27.3106 39.6932 27.0455C39.8636 26.7803 39.9811 26.4773 40.0455 26.1364L42.1705 26.1477C42.0909 26.7008 41.9186 27.2197 41.6534 27.7045C41.392 28.1894 41.0492 28.6174 40.625 28.9886C40.2008 29.3561 39.7045 29.6439 39.1364 29.8523C38.5682 30.0568 37.9375 30.1591 37.2443 30.1591C36.2216 30.1591 35.3087 29.9223 34.5057 29.4489C33.7027 28.9754 33.0701 28.2917 32.608 27.3977C32.1458 26.5038 31.9148 25.4318 31.9148 24.1818C31.9148 22.928 32.1477 21.8561 32.6136 20.9659C33.0795 20.072 33.714 19.3883 34.517 18.9148C35.3201 18.4413 36.2292 18.2045 37.2443 18.2045C37.892 18.2045 38.4943 18.2955 39.0511 18.4773C39.608 18.6591 40.1042 18.9261 40.5398 19.2784C40.9754 19.6269 41.3333 20.0549 41.6136 20.5625C41.8977 21.0663 42.0833 21.642 42.1705 22.2898ZM54.4986 24.1818C54.4986 25.4356 54.2637 26.5095 53.794 27.4034C53.3281 28.2936 52.6918 28.9754 51.8849 29.4489C51.0819 29.9223 50.1709 30.1591 49.152 30.1591C48.133 30.1591 47.2202 29.9223 46.4134 29.4489C45.6103 28.9716 44.974 28.2879 44.5043 27.3977C44.0384 26.5038 43.8054 25.4318 43.8054 24.1818C43.8054 22.928 44.0384 21.8561 44.5043 20.9659C44.974 20.072 45.6103 19.3883 46.4134 18.9148C47.2202 18.4413 48.133 18.2045 49.152 18.2045C50.1709 18.2045 51.0819 18.4413 51.8849 18.9148C52.6918 19.3883 53.3281 20.072 53.794 20.9659C54.2637 21.8561 54.4986 22.928 54.4986 24.1818ZM52.3793 24.1818C52.3793 23.2992 52.241 22.5549 51.9645 21.9489C51.6918 21.339 51.313 20.8788 50.8281 20.5682C50.3433 20.2538 49.7846 20.0966 49.152 20.0966C48.5194 20.0966 47.9607 20.2538 47.4759 20.5682C46.991 20.8788 46.6103 21.339 46.3338 21.9489C46.0611 22.5549 45.9247 23.2992 45.9247 24.1818C45.9247 25.0644 46.0611 25.8106 46.3338 26.4205C46.6103 27.0265 46.991 27.4867 47.4759 27.8011C47.9607 28.1117 48.5194 28.267 49.152 28.267C49.7846 28.267 50.3433 28.1117 50.8281 27.8011C51.313 27.4867 51.6918 27.0265 51.9645 26.4205C52.241 25.8106 52.3793 25.0644 52.3793 24.1818ZM66.054 18.3636V30H64.179L58.696 22.0739H58.5994V30H56.4915V18.3636H58.3778L63.8551 26.2955H63.9574V18.3636H66.054ZM67.8395 20.1307V18.3636H77.1236V20.1307H73.527V30H71.4361V20.1307H67.8395ZM79.0014 30H76.7514L80.848 18.3636H83.4503L87.5526 30H85.3026L82.1946 20.75H82.1037L79.0014 30ZM79.0753 25.4375H85.2116V27.1307H79.0753V25.4375ZM98.4986 22.2898H96.3736C96.313 21.9413 96.2012 21.6326 96.0384 21.3636C95.8755 21.0909 95.6728 20.8598 95.4304 20.6705C95.188 20.4811 94.9115 20.339 94.6009 20.2443C94.294 20.1458 93.9626 20.0966 93.6065 20.0966C92.974 20.0966 92.4134 20.2557 91.9247 20.5739C91.4361 20.8883 91.0535 21.3504 90.777 21.9602C90.5005 22.5663 90.3622 23.3068 90.3622 24.1818C90.3622 25.072 90.5005 25.822 90.777 26.4318C91.0573 27.0379 91.4399 27.4962 91.9247 27.8068C92.4134 28.1136 92.9721 28.267 93.6009 28.267C93.9493 28.267 94.2751 28.2216 94.5781 28.1307C94.8849 28.036 95.1596 27.8977 95.402 27.7159C95.6482 27.5341 95.8546 27.3106 96.0213 27.0455C96.1918 26.7803 96.3092 26.4773 96.3736 26.1364L98.4986 26.1477C98.419 26.7008 98.2467 27.2197 97.9815 27.7045C97.7202 28.1894 97.3774 28.6174 96.9531 28.9886C96.5289 29.3561 96.0327 29.6439 95.4645 29.8523C94.8963 30.0568 94.2656 30.1591 93.5724 30.1591C92.5497 30.1591 91.6368 29.9223 90.8338 29.4489C90.0308 28.9754 89.3982 28.2917 88.9361 27.3977C88.474 26.5038 88.2429 25.4318 88.2429 24.1818C88.2429 22.928 88.4759 21.8561 88.9418 20.9659C89.4077 20.072 90.0421 19.3883 90.8452 18.9148C91.6482 18.4413 92.5573 18.2045 93.5724 18.2045C94.2202 18.2045 94.8224 18.2955 95.3793 18.4773C95.9361 18.6591 96.4323 18.9261 96.8679 19.2784C97.3035 19.6269 97.6615 20.0549 97.9418 20.5625C98.2259 21.0663 98.4115 21.642 98.4986 22.2898ZM99.9176 20.1307V18.3636H109.202V20.1307H105.605V30H103.514V20.1307H99.9176ZM122.295 18.3636H124.403V25.9659C124.403 26.7992 124.206 27.5322 123.812 28.1648C123.422 28.7973 122.873 29.2917 122.165 29.6477C121.456 30 120.629 30.1761 119.682 30.1761C118.731 30.1761 117.902 30 117.193 29.6477C116.485 29.2917 115.936 28.7973 115.545 28.1648C115.155 27.5322 114.96 26.7992 114.96 25.9659V18.3636H117.068V25.7898C117.068 26.2746 117.174 26.7064 117.386 27.0852C117.602 27.464 117.905 27.7614 118.295 27.9773C118.686 28.1894 119.148 28.2955 119.682 28.2955C120.216 28.2955 120.678 28.1894 121.068 27.9773C121.462 27.7614 121.765 27.464 121.977 27.0852C122.189 26.7064 122.295 26.2746 122.295 25.7898V18.3636ZM133.018 21.5625C132.965 21.0663 132.742 20.6799 132.348 20.4034C131.958 20.1269 131.45 19.9886 130.825 19.9886C130.386 19.9886 130.009 20.0549 129.695 20.1875C129.38 20.3201 129.14 20.5 128.973 20.7273C128.806 20.9545 128.721 21.214 128.717 21.5057C128.717 21.7481 128.772 21.9583 128.882 22.1364C128.996 22.3144 129.149 22.4659 129.342 22.5909C129.536 22.7121 129.75 22.8144 129.984 22.8977C130.219 22.9811 130.456 23.0511 130.695 23.108L131.786 23.3807C132.225 23.483 132.647 23.6212 133.053 23.7955C133.462 23.9697 133.827 24.1894 134.149 24.4545C134.475 24.7197 134.732 25.0398 134.922 25.4148C135.111 25.7898 135.206 26.2292 135.206 26.733C135.206 27.4148 135.032 28.0152 134.683 28.5341C134.335 29.0492 133.831 29.4527 133.172 29.7443C132.517 30.0322 131.723 30.1761 130.791 30.1761C129.886 30.1761 129.1 30.036 128.433 29.7557C127.77 29.4754 127.251 29.0663 126.876 28.5284C126.505 27.9905 126.304 27.3352 126.274 26.5625H128.348C128.378 26.9678 128.503 27.3049 128.723 27.5739C128.943 27.8428 129.229 28.0436 129.581 28.1761C129.937 28.3087 130.335 28.375 130.774 28.375C131.232 28.375 131.634 28.3068 131.979 28.1705C132.327 28.0303 132.6 27.8371 132.797 27.5909C132.994 27.3409 133.094 27.0492 133.098 26.7159C133.094 26.4129 133.005 26.1629 132.831 25.9659C132.657 25.7652 132.412 25.5985 132.098 25.4659C131.787 25.3295 131.424 25.2083 131.007 25.1023L129.683 24.7614C128.725 24.5152 127.967 24.142 127.411 23.642C126.857 23.1383 126.581 22.4697 126.581 21.6364C126.581 20.9508 126.767 20.3504 127.138 19.8352C127.513 19.3201 128.022 18.9205 128.666 18.6364C129.31 18.3485 130.039 18.2045 130.854 18.2045C131.679 18.2045 132.403 18.3485 133.024 18.6364C133.649 18.9205 134.14 19.3163 134.496 19.8239C134.852 20.3277 135.036 20.9072 135.047 21.5625H133.018Z" fill="white"/>
</svg>
